<?xml version="1.0" standalone="no"?>
<!DOCTYPE svg PUBLIC "-//W3C//DTD SVG 20010904//EN"
 "http://www.w3.org/TR/2001/REC-SVG-20010904/DTD/svg10.dtd">
<svg version="1.0" xmlns="http://www.w3.org/2000/svg"
 width="300.000000pt" height="300.000000pt" viewBox="0 0 300.000000 300.000000"
 preserveAspectRatio="xMidYMid meet">
<metadata>
Created by potrace 1.14, written by Peter Selinger 2001-2017
</metadata>
<g transform="translate(0.000000,300.000000) scale(0.100000,-0.100000)"
fill="#000000" stroke="none">
<path d="M1414 2992 c4 -7 -7 -11 -36 -10 -24 0 -45 -1 -48 -2 -15 -5 -50 -10
-90 -13 -25 -1 -51 -6 -58 -11 -7 -4 -26 -8 -42 -8 -17 -1 -30 -5 -30 -11 0
-5 -7 -7 -15 -4 -8 4 -17 2 -21 -4 -3 -6 -12 -8 -20 -5 -8 3 -14 2 -14 -3 0
-7 -7 -9 -50 -13 -11 -1 -20 -5 -20 -9 0 -8 -39 -22 -62 -22 -10 0 -15 -3 -13
-8 7 -10 -32 -22 -45 -14 -6 4 -9 1 -8 -7 2 -7 -3 -12 -9 -10 -7 1 -13 -2 -13
-8 0 -5 -7 -6 -17 -3 -10 4 -14 2 -10 -4 6 -10 -37 -29 -56 -24 -5 1 -6 -3 -2
-9 3 -5 -1 -10 -9 -10 -9 0 -16 -5 -16 -11 0 -5 -4 -8 -9 -4 -6 3 -14 -3 -20
-12 -6 -10 -11 -14 -11 -9 0 6 -9 1 -20 -10 -31 -31 -50 -45 -50 -38 0 4 -11
-5 -24 -21 -17 -20 -25 -24 -29 -14 -4 11 -6 11 -6 1 -1 -13 -61 -77 -73 -77
-3 0 -15 -10 -26 -22 -10 -13 -23 -19 -27 -15 -5 4 -5 2 -2 -4 8 -14 -21 -56
-34 -48 -5 3 -8 0 -7 -8 2 -7 -3 -12 -10 -10 -8 1 -11 -2 -7 -8 3 -5 1 -10 -4
-10 -6 0 -10 -6 -8 -12 1 -7 -4 -12 -11 -10 -8 1 -11 -1 -8 -6 3 -5 -8 -23
-24 -41 -17 -18 -30 -36 -30 -40 0 -4 -7 -16 -16 -27 -8 -10 -12 -13 -8 -5 5
9 3 12 -5 7 -6 -4 -9 -12 -5 -17 3 -6 -2 -17 -12 -25 -11 -9 -12 -12 -5 -8 10
5 8 -2 -5 -22 -11 -16 -26 -41 -33 -56 -8 -15 -19 -25 -24 -21 -6 3 -7 1 -3
-5 4 -6 1 -22 -6 -34 -7 -13 -13 -26 -14 -30 -1 -5 -3 -11 -4 -15 -1 -5 -2
-11 -1 -15 0 -5 -4 -8 -10 -8 -5 0 -7 -4 -4 -10 3 -5 2 -10 -3 -10 -6 0 -13
-7 -16 -16 -4 -10 -2 -13 7 -8 9 6 9 5 0 -8 -7 -8 -10 -18 -6 -21 3 -4 1 -7
-6 -7 -7 0 -10 -4 -7 -9 8 -13 -4 -42 -15 -35 -5 3 -6 -2 -3 -11 4 -8 2 -21
-3 -28 -5 -6 -8 -22 -7 -34 0 -13 -2 -23 -7 -23 -5 0 -6 -7 -3 -15 3 -8 2 -20
-2 -27 -4 -7 -9 -32 -11 -57 -1 -25 -8 -48 -15 -53 -10 -5 -10 -8 -1 -8 7 0
10 -9 6 -22 -3 -13 -5 -67 -5 -120 0 -61 -4 -95 -10 -92 -6 4 -5 -3 1 -14 6
-11 12 -58 15 -105 2 -46 7 -90 11 -96 4 -7 4 -15 1 -18 -3 -3 -1 -12 6 -20 6
-7 8 -16 5 -19 -3 -3 -2 -17 4 -31 9 -25 21 -78 22 -100 0 -7 5 -13 10 -13 6
0 7 -3 4 -7 -4 -3 -2 -12 4 -20 6 -7 8 -13 4 -13 -4 0 -1 -8 6 -17 8 -9 9 -14
3 -10 -6 3 -11 0 -11 -8 0 -8 5 -13 11 -12 6 1 10 -4 8 -11 -1 -6 3 -12 9 -12
5 0 8 -4 5 -9 -3 -4 1 -17 9 -27 8 -10 15 -27 15 -36 0 -10 5 -18 12 -18 6 0
9 -3 5 -6 -3 -4 1 -13 9 -22 9 -8 13 -23 11 -34 -3 -10 -1 -16 3 -13 5 3 11 1
15 -5 3 -5 0 -10 -7 -11 -7 0 -3 -4 10 -10 13 -5 20 -13 17 -19 -3 -5 -1 -10
6 -10 7 0 10 -3 6 -6 -3 -4 1 -13 9 -21 8 -8 11 -19 8 -25 -4 -7 -2 -8 4 -4
11 7 17 -6 13 -27 -1 -5 2 -6 6 -4 8 5 29 -13 29 -23 0 -7 35 -49 56 -68 9 -9
14 -20 11 -26 -3 -6 -3 -8 2 -4 11 11 57 -41 49 -55 -4 -7 -4 -9 0 -5 11 9 36
-14 28 -26 -3 -5 0 -6 5 -3 13 8 55 -27 45 -38 -4 -5 -2 -5 4 -2 14 8 37 -17
26 -28 -4 -5 -2 -5 5 -2 6 4 26 -8 44 -25 18 -18 29 -27 24 -19 -5 9 2 7 17
-5 14 -10 23 -23 20 -28 -3 -5 0 -6 6 -2 7 4 24 -5 39 -21 14 -15 23 -21 19
-13 -7 13 -6 13 6 0 7 -8 20 -16 28 -18 8 -2 20 -10 26 -17 6 -8 13 -12 16
-10 3 3 17 -1 31 -8 15 -8 23 -17 19 -21 -4 -4 -2 -7 3 -6 23 5 43 -1 63 -20
12 -12 22 -16 22 -9 0 9 3 9 14 0 8 -7 27 -14 42 -17 37 -7 46 -13 37 -27 -4
-8 -1 -7 9 1 11 9 18 10 23 2 3 -6 11 -8 16 -5 5 4 9 2 9 -2 0 -5 11 -10 25
-11 45 -3 55 -5 55 -11 0 -3 15 -7 33 -8 17 -2 41 -5 52 -7 11 -2 26 -5 33 -5
7 -1 10 -5 7 -11 -3 -5 -1 -10 4 -10 6 0 11 5 11 11 0 6 13 8 38 3 20 -4 82
-7 137 -7 58 -1 103 -5 107 -12 5 -7 8 -6 8 1 0 7 17 12 38 12 20 0 39 1 42 2
3 2 19 4 35 6 17 1 48 6 70 9 22 3 52 7 67 8 15 1 24 5 21 11 -4 5 3 7 15 4
12 -4 22 -2 22 4 0 5 9 6 20 3 12 -4 20 -2 20 5 0 6 4 9 9 5 5 -3 12 -1 16 4
3 5 14 8 25 6 13 -3 18 0 14 7 -5 7 -1 9 9 5 10 -4 17 -2 17 5 0 6 6 5 17 -3
9 -8 14 -9 10 -3 -7 12 48 41 69 36 7 -1 14 5 18 13 3 9 10 13 16 10 5 -3 10
-1 10 5 0 6 5 8 10 5 6 -3 10 -2 10 4 0 6 7 7 17 4 9 -4 14 -2 10 3 -3 6 10
16 29 23 18 7 34 17 34 22 0 5 9 9 19 9 10 0 22 7 25 16 3 8 10 13 15 9 6 -3
14 3 20 12 6 10 11 14 11 9 0 -5 9 1 20 14 11 13 20 19 20 15 0 -4 9 2 20 15
11 13 20 20 20 17 0 -3 23 16 50 43 34 33 56 47 68 44 14 -5 15 -4 2 5 -14 10
-7 16 13 12 5 -1 6 3 2 9 -3 5 -1 10 6 10 7 0 10 3 6 6 -7 7 51 69 73 77 9 3
10 6 3 6 -9 1 -8 7 4 20 9 11 21 17 26 14 6 -4 7 -1 2 7 -5 9 2 22 21 38 16
13 23 21 15 17 -9 -5 -8 1 4 19 10 14 22 26 27 26 5 0 6 5 3 10 -3 6 -1 10 4
10 6 0 11 7 11 15 0 8 5 15 10 15 6 0 10 3 9 8 -3 19 14 51 25 45 6 -3 8 -3 4
2 -4 4 -2 17 4 29 7 11 11 24 10 29 -1 4 2 7 8 7 6 0 9 6 8 13 -2 6 2 11 8 10
7 -1 9 8 6 24 -3 18 -1 24 6 19 8 -5 10 -2 6 8 -4 9 -1 16 6 16 7 0 10 6 7 14
-3 7 0 19 6 25 6 6 7 11 2 11 -5 0 0 7 11 16 10 8 13 13 7 9 -15 -7 -17 7 -3
21 5 5 12 27 15 49 2 22 9 41 14 43 6 2 7 10 4 19 -5 12 -3 14 8 8 12 -8 12
-6 1 8 -8 9 -10 21 -7 28 9 13 16 59 17 111 0 21 3 36 7 34 4 -3 6 26 5 62 0
37 4 73 10 81 8 11 8 13 -2 7 -9 -5 -11 4 -10 36 2 24 8 46 13 50 6 5 6 8 -2
8 -6 0 -10 8 -8 18 1 9 -2 25 -7 36 -7 13 -6 21 3 27 9 5 10 9 3 9 -7 0 -11
14 -10 35 1 19 -2 35 -6 35 -5 0 -8 7 -8 16 0 9 5 12 13 8 6 -4 3 3 -8 16 -12
14 -14 20 -5 15 13 -8 13 -6 1 8 -7 9 -11 23 -8 32 4 8 2 17 -4 20 -5 4 -7 11
-4 16 4 5 1 9 -5 9 -7 0 -10 6 -7 13 2 6 -4 31 -14 55 -10 23 -16 42 -12 42 3
0 -1 8 -8 17 -8 9 -9 14 -3 10 6 -3 11 0 11 8 0 8 -5 13 -11 12 -6 -1 -10 4
-8 11 1 6 -3 12 -9 12 -6 0 -9 9 -6 20 3 13 1 18 -6 13 -6 -4 -8 2 -4 16 3 13
3 20 0 17 -10 -10 -42 46 -35 62 3 10 1 13 -6 8 -8 -5 -12 0 -12 13 0 12 -5
21 -11 21 -5 0 -7 5 -4 10 3 6 -1 13 -9 16 -9 3 -14 10 -11 14 3 5 1 11 -5 15
-6 4 -7 11 -4 17 4 6 2 8 -4 4 -6 -3 -13 3 -17 14 -3 11 -11 20 -17 20 -6 0
-8 3 -5 6 4 4 -3 15 -14 25 -13 11 -19 25 -15 34 3 10 2 14 -5 9 -12 -7 -46
35 -41 51 2 6 1 7 -3 3 -10 -9 -34 15 -27 26 3 5 0 6 -5 3 -6 -4 -16 0 -23 8
-7 8 -9 15 -6 15 4 0 -4 11 -18 23 -14 13 -22 28 -18 32 4 5 2 5 -4 2 -13 -7
-60 30 -57 44 2 5 -3 8 -10 6 -6 -1 -11 4 -9 12 2 8 -3 11 -11 8 -8 -3 -20 3
-28 14 -7 10 -19 19 -26 19 -6 0 -19 10 -27 22 -9 12 -16 19 -16 15 0 -4 -7
-2 -15 5 -34 29 -41 33 -55 36 -8 2 -22 9 -30 17 -8 7 -33 21 -55 31 -22 10
-43 22 -46 27 -3 5 -10 9 -15 10 -5 1 -8 5 -7 8 1 4 -7 4 -19 1 -14 -3 -19 -1
-14 6 3 6 1 14 -5 18 -8 4 -9 3 -5 -4 4 -7 1 -12 -8 -12 -9 0 -16 5 -16 11 0
5 -4 7 -10 4 -5 -3 -10 -2 -10 4 0 6 -7 7 -17 4 -10 -4 -14 -2 -9 5 4 7 -1 10
-14 7 -11 -2 -20 1 -20 7 0 6 -3 9 -6 5 -4 -3 -21 0 -38 7 -17 7 -37 11 -43 9
-7 -3 -13 -1 -13 4 0 7 -18 11 -73 13 -9 1 -15 4 -13 8 3 4 -14 8 -37 9 -52 1
-70 5 -79 18 -5 6 -8 5 -8 -4 0 -11 -3 -11 -17 0 -9 8 -14 9 -10 3 7 -12 -59
-4 -83 11 -8 5 -11 4 -6 -3 8 -13 -122 -11 -143 2 -9 6 -12 5 -7 -2z"/>
</g>
</svg>
